<svg width="24" height="23" viewBox="0 0 31 30" fill="none" xmlns="http://www.w3.org/2000/svg"><g clip-path="url(#clip0_634_921)"><mask id="mask0_634_921" style="mask-type:luminance" maskUnits="userSpaceOnUse" x="0" y="0" width="31" height="30"><path d="M30.9999 0H0.399902V30H30.9999V0Z" fill="white" /></mask><g mask="url(#mask0_634_921)"><path d="M13.9998 12.1001H30.1998L30.3998 25.4001L28.4998 26.3001L28.1998 28.7001L27.7998 29.4001L24.1998 26.5001L13.9998 26.0001V12.1001Z" fill="#54C4FF" /><path d="M27.5998 30C27.2998 29.9 27.0998 29.7001 26.8998 29.5C25.9998 28.7001 25.0998 27.9 24.1998 27.1C24.0998 27 23.9998 27 23.8998 26.9C23.7998 26.9 23.6998 26.8 23.5998 26.8H15.7998C14.2998 26.8 13.3998 26 13.3998 24.7V13.3C13.3998 12.3 14.0998 11.5 14.9998 11.4C15.1998 11.4 15.3998 11.3 15.6998 11.3H28.7998C30.1998 11.3 31.0998 12.1 31.0998 13.3C31.0998 17.1 31.0998 20.9 31.0998 24.7C31.1998 25.9 30.2998 26.8 29.0998 26.9C28.9998 26.9 28.9998 26.9 28.8998 26.9C28.8998 27.5 28.8998 28.2 28.8998 28.9C28.9998 29.4 28.5998 29.9 28.0998 30H27.5998ZM27.7998 29.1V29V26.7C27.7998 26.1 27.8998 26 28.5998 26C29.5998 26 29.9998 25.6 29.9998 24.8V13.4C29.9998 12.6 29.5998 12.2 28.5998 12.2H15.5998C14.5998 12.2 14.1998 12.6 14.1998 13.4V24.8C14.1998 25.6 14.5998 26 15.5998 26C18.0998 26 20.5998 26 23.0998 26C23.7998 25.9 24.4998 26.2 24.9998 26.7C25.8998 27.5 26.8998 28.3 27.7998 29.1Z" fill="#54C4FF" /><path d="M16.3998 0L16.5998 0.1C17.3998 0.2 18.0998 1 18.0998 1.9C18.0998 4.5 18.0998 7.2 18.0998 9.8C18.0998 10.1 17.8998 10.3 17.6998 10.3H17.5998C17.2998 10.3 17.0998 10.1 17.0998 9.8V2.1C17.0998 1.2 16.6998 0.9 15.6998 0.9H2.6998C1.7998 0.9 1.3998 1.2 1.3998 2V13.5C1.3998 14.3 1.7998 14.7 2.7998 14.7H2.9998C3.3998 14.7 3.5998 14.9 3.5998 15.2C3.5998 16 3.5998 16.9 3.5998 17.8L3.8998 17.6L6.8998 14.9C6.9998 14.8 7.0998 14.8 7.1998 14.7C7.2998 14.7 7.3998 14.6 7.5998 14.6H11.6998C11.9998 14.6 12.1998 14.8 12.1998 15C12.1998 15.3 11.9998 15.5 11.6998 15.4H9.89981C9.19981 15.4 8.4998 15.4 7.7998 15.4C7.5998 15.4 7.4998 15.5 7.2998 15.6C6.2998 16.5 5.2998 17.3 4.2998 18.2C3.8998 18.6 3.1998 18.6 2.6998 18.2C2.5998 18.1 2.4998 18 2.4998 17.9C2.4998 17.8 2.4998 17.6 2.4998 17.5C2.4998 16.8 2.4998 16.2 2.4998 15.5C2.4998 15.5 2.4998 15.5 2.4998 15.4H1.8998C1.4998 15.3 1.0998 15.1 0.799805 14.8C0.499805 14.5 0.299805 14.1 0.299805 13.7C0.299805 13.6 0.299805 13.4 0.299805 13.3C0.399805 9.7 0.399805 6 0.399805 2.3C0.299805 1.2 1.0998 0.2 2.1998 0H16.3998Z" fill="#949494" /><path d="M20.9998 17.3999C20.4998 16.9999 20.2998 16.2999 20.3998 15.6999C20.5998 14.9999 21.0998 14.4999 21.8998 14.2999C22.5998 14.0999 23.3998 14.2999 23.9998 14.6999C24.2998 14.8999 24.2998 15.1999 24.0998 15.3999C23.8998 15.5999 23.4998 15.5999 23.2998 15.3999C22.8998 15.0999 22.2998 14.9999 21.8998 15.2999C21.6998 15.3999 21.4998 15.5999 21.4998 15.7999C21.3998 15.9999 21.3998 16.1999 21.4998 16.3999C21.6998 16.7999 22.0998 17.0999 22.5998 17.0999C23.0998 17.0999 23.5998 17.0999 24.0998 17.0999C24.1998 17.0999 24.2998 17.0999 24.3998 17.1999C24.4998 17.1999 24.4998 17.2999 24.5998 17.3999C24.6998 17.4999 24.5998 17.6999 24.4998 17.7999C24.3998 17.8999 24.1998 17.9999 23.9998 17.9999C23.4998 17.9999 23.0998 17.9999 22.5998 17.9999C21.9998 17.9999 21.3998 18.1999 20.8998 18.5999C20.3998 18.8999 20.0998 19.3999 19.8998 19.8999C19.6998 20.3999 19.6998 20.9999 19.8998 21.4999C20.0998 21.9999 20.3998 22.4999 20.8998 22.7999C21.3998 23.0999 21.9998 23.2999 22.5998 23.2999C23.1998 23.2999 23.7998 23.1999 24.2998 22.8999L24.4998 22.7999C24.6998 22.6999 24.9998 22.6999 25.1998 22.8999C25.2998 23.0999 25.2998 23.2999 25.1998 23.3999C25.1998 23.3999 25.0998 23.3999 25.0998 23.4999C24.2998 23.9999 23.4998 24.2999 22.5998 24.1999C21.7998 24.1999 20.8998 23.8999 20.1998 23.3999C19.4998 22.9999 19.0998 22.2999 18.7998 21.4999C18.5998 20.7999 18.5998 19.9999 18.9998 19.2999C19.2998 18.4999 19.8998 17.8999 20.6998 17.4999L20.9998 17.3999Z" fill="white" /></g><path d="M7.59988 12.1001C7.39988 12.1001 7.29988 12.1001 7.19988 12.0001C7.09988 11.9001 6.99988 11.7001 6.99988 11.6001V4.2001C6.99988 4.0001 6.99988 3.9001 7.19988 3.8001C7.29988 3.7001 7.39988 3.6001 7.59988 3.6001H11.9999C12.0999 3.6001 12.2999 3.6001 12.3999 3.7001C12.4999 3.8001 12.4999 3.9001 12.4999 4.0001C12.4999 4.1001 12.4999 4.2001 12.3999 4.3001C12.2999 4.4001 12.1999 4.4001 11.9999 4.4001H8.09988V7.2001H11.7999C11.8999 7.2001 12.0999 7.2001 12.1999 7.3001C12.3999 7.5001 12.3999 7.8001 12.1999 8.0001C12.0999 8.1001 11.9999 8.1001 11.7999 8.1001H8.09988V11.0001H11.9999C12.0999 11.0001 12.2999 11.0001 12.3999 11.1001C12.4999 11.2001 12.4999 11.3001 12.4999 11.5001C12.4999 11.6001 12.4999 11.7001 12.3999 11.8001C12.2999 11.9001 12.1999 11.9001 11.9999 11.9001H7.59988V12.1001Z" fill="#949494" /></g><defs><clipPath id="clip0_634_921"><rect width="30.6" height="30" fill="white" transform="translate(0.399902)" /></clipPath></defs></svg>