<svg width="24" height="23" viewBox="0 0 31 30" fill="none" xmlns="http://www.w3.org/2000/svg"><g clip-path="url(#clip0_634_932)"><mask id="mask0_634_932" style="mask-type:luminance" maskUnits="userSpaceOnUse" x="0" y="0" width="31" height="30"><path d="M30.6 0H0V30H30.6V0Z" fill="white" /></mask><g mask="url(#mask0_634_932)"><path d="M13.6 12.2H29.8L30 25.5L28.1 26.4L27.8 28.7999L27.4 29.5L23.8 26.6L13.6 26.1V12.2Z" fill="#54C4FF" /><path d="M27.2 30C26.9 29.9 26.7 29.7001 26.5 29.5C25.6 28.7001 24.7 27.9 23.8 27.1C23.7 27 23.6 27 23.5 26.9C23.4 26.9 23.3 26.8 23.2 26.8H15.4C13.9 26.8 13 26 13 24.7V13.3C13 12.3 13.7 11.5 14.6 11.4C14.8 11.4 15 11.3 15.3 11.3H28.4C29.8 11.3 30.7 12.1 30.7 13.3C30.7 17.1 30.7 20.9 30.7 24.7C30.8 25.9 29.9 26.8 28.7 26.9C28.6 26.9 28.6 26.9 28.5 26.9C28.5 27.5 28.5 28.2 28.5 28.9C28.6 29.4 28.2 29.9 27.7 30H27.2ZM27.4 29.1V29V26.7C27.4 26.1 27.5 26 28.2 26C29.2 26 29.6 25.6 29.6 24.8V13.4C29.6 12.6 29.2 12.2 28.2 12.2H15.2C14.2 12.2 13.8 12.6 13.8 13.4V24.8C13.8 25.6 14.2 26 15.2 26C17.7 26 20.2 26 22.7 26C23.4 25.9 24.1 26.2 24.6 26.7C25.5 27.5 26.5 28.3 27.4 29.1Z" fill="#54C4FF" /><path d="M16 0L16.2 0.1C17 0.2 17.7 1 17.7 1.9C17.7 4.5 17.7 7.2 17.7 9.8C17.7 10.1 17.5 10.3 17.3 10.3H17.2C16.9 10.3 16.7 10.1 16.7 9.8V2.1C16.7 1.2 16.3 0.9 15.3 0.9H2.30002C1.40002 0.9 1.00002 1.2 1.00002 2V13.5C1.00002 14.3 1.40002 14.7 2.40002 14.7H2.60002C3.00002 14.7 3.20002 14.9 3.20002 15.2C3.20002 16 3.20002 16.9 3.20002 17.8L3.50002 17.6L6.50002 14.9C6.60002 14.8 6.70002 14.8 6.80002 14.7C6.90002 14.7 7.00002 14.6 7.20002 14.6H11.3C11.6 14.6 11.8 14.8 11.8 15C11.8 15.3 11.6 15.5 11.3 15.4H9.50002C8.80002 15.4 8.10002 15.4 7.40002 15.4C7.20002 15.4 7.10002 15.5 6.90002 15.6C5.90002 16.5 4.90002 17.3 3.90002 18.2C3.50002 18.6 2.80002 18.6 2.30002 18.2C2.20002 18.1 2.10002 18 2.10002 17.9C2.10002 17.8 2.10002 17.6 2.10002 17.5C2.10002 16.8 2.10002 16.2 2.10002 15.5C2.10002 15.5 2.10002 15.5 2.10002 15.4H1.50002C1.10002 15.3 0.700024 15.1 0.400024 14.8C0.100024 14.5 -0.0999756 14.1 -0.0999756 13.7C-0.0999756 13.6 -0.0999756 13.4 -0.0999756 13.3C2.44156e-05 9.7 2.44156e-05 6 2.44156e-05 2.3C-0.0999756 1.2 0.700024 0.2 1.80002 0H16Z" fill="#949494" /><path d="M7.40004 5.89994C6.90004 5.49994 6.60004 4.79994 6.80004 4.19994C7.00004 3.49994 7.50004 2.89994 8.30004 2.79994C9.00004 2.59994 9.80003 2.69994 10.4 3.19994C10.7 3.39994 10.7 3.69994 10.5 3.89994C10.3 4.09994 9.90003 4.09994 9.70004 3.89994C9.30003 3.59994 8.70004 3.49994 8.30004 3.79994C8.10004 3.89994 7.90004 4.09994 7.80004 4.29994C7.70004 4.49994 7.70004 4.69994 7.80004 4.89994C8.00004 5.29994 8.50003 5.49994 8.90003 5.49994C9.40003 5.49994 9.90003 5.49994 10.4 5.49994C10.5 5.49994 10.6 5.49994 10.7 5.59994C10.8 5.59994 10.8 5.69994 10.9 5.79994C11 5.89994 10.9 6.09994 10.8 6.19994C10.7 6.29994 10.5 6.39994 10.3 6.39994C9.80004 6.39994 9.40003 6.39994 8.90003 6.39994C8.40003 6.39994 7.80004 6.59994 7.30004 6.99994C6.80004 7.29994 6.50004 7.79994 6.30004 8.29994C6.10004 8.79994 6.10004 9.39994 6.30004 9.89994C6.50004 10.3999 6.80004 10.8999 7.30004 11.1999C7.80004 11.4999 8.40004 11.6999 9.00004 11.6999C9.60004 11.6999 10.2 11.5999 10.7 11.2999C10.8 11.2999 10.9 11.1999 10.9 11.1999C11.1 10.9999 11.4 11.0999 11.6 11.2999C11.7 11.4999 11.7 11.6999 11.6 11.8999C11.6 11.8999 11.5 11.8999 11.5 11.9999C10.7 12.4999 9.90003 12.7999 8.90003 12.6999C8.10003 12.6999 7.20004 12.3999 6.50004 11.8999C6.00004 11.2999 5.50004 10.6999 5.30004 9.89994C5.00004 9.19994 5.10004 8.39994 5.40004 7.69994C5.80004 6.99994 6.30004 6.39994 7.00004 5.99994L7.40004 5.89994Z" fill="#949494" /><path d="M19.9 23.3999C19.7 23.3999 19.6 23.3999 19.5 23.2999C19.4 23.1999 19.3 22.9999 19.3 22.7999V15.4999C19.3 15.1999 19.5 14.8999 19.8 14.8999H19.9H24.3C24.4 14.8999 24.6001 14.8999 24.7001 14.9999C24.8001 15.0999 24.8 15.1999 24.8 15.2999C24.8 15.3999 24.8001 15.5999 24.7001 15.5999C24.6001 15.6999 24.5 15.6999 24.3 15.6999H20.4V18.4999H24.1C24.2 18.4999 24.4 18.4999 24.5 18.5999C24.7 18.7999 24.7 19.0999 24.5 19.2999C24.4 19.3999 24.3 19.3999 24.1 19.3999H20.4V22.3999H24.3C24.4 22.3999 24.6001 22.3999 24.7001 22.4999C24.8001 22.5999 24.8 22.6999 24.8 22.7999C24.8 22.8999 24.8001 23.0999 24.7001 23.0999C24.6001 23.1999 24.5 23.1999 24.3 23.1999L19.9 23.3999Z" fill="white" /></g></g><defs><clipPath id="clip0_634_932"><rect width="30.6" height="30" fill="white" /></clipPath></defs></svg>