<svg xmlns="http://www.w3.org/2000/svg" width="269" height="56" fill="#35b8fd" xmlns:v="https://vecta.io/nano"><path d="M8.297 45.873a4 4 0 0 1-3.4-1.89c-.48-.78-11.58-19.19 1.32-34.23a26.79 26.79 0 0 1 31.08-7.65 4 4 0 0 1-3.31 7.28 18.85 18.85 0 0 0-21.7 5.58c-9.07 10.57-.93 24.25-.58 24.83a4 4 0 0 1-3.41 6.08zm25.19 10.06a4.01 4.01 0 0 1-1.554-.186 4 4 0 0 1-1.365-.767 4.01 4.01 0 0 1-.439-5.657 4.01 4.01 0 0 1 1.23-.968c.47-.239.982-.382 1.507-.423.49-.08 12.52-2.26 14.78-14.8 2-11.23-4.75-17-4.81-17.08a4 4 0 0 1-.625-5.726 4 4 0 0 1 5.745-.412c.42.35 10.4 8.87 7.56 24.64-3.28 18.21-20.66 21.17-21.4 21.29-.208.044-.418.075-.63.09zm-13.24-13.98a7.13 7.13 0 0 0-3.67 0 .23.23 0 0 1-.166-.07c-.021-.022-.038-.049-.049-.078s-.016-.06-.014-.091v-21.28c0-.22.52-.32.66-.14l17.2 22.11c.38.54.48 1.08-.09 1.53a1.77 1.77 0 0 1-2.43-.37l-10.83-13.52c-.14-.18-.33-.11-.33.11v11.56a.24.24 0 0 1-.28.24zm-.79-25.37a2.16 2.16 0 0 0-1.23 1 1.94 1.94 0 0 0 .45 2l16.83 21.83a2.61 2.61 0 0 0 1.32 1c.82.22 2.24-.28 2.25-1.3v-18.71a.87.87 0 0 0-.541-.816.87.87 0 0 0-.338-.064h-2a.87.87 0 0 0-.88.87l-.06 13.54h-.09l-13.85-18.57a1.87 1.87 0 0 0-1.86-.78zm14.06 2.54a2.45 2.45 0 1 0 0-4.9 2.45 2.45 0 1 0 0 4.9z"/><path d="M37.097 23.113a3.17 3.17 0 1 0 0-6.34 3.17 3.17 0 1 0 0 6.34zm-18.94 26.6a3.27 3.27 0 1 0 0-6.54 3.27 3.27 0 1 0 0 6.54zm64.86-31.35h5.36v26.29l-17-14.9v13.78h-5.73v-26.43l17 14.89v-13.63h.37zm30.75 0v5.73h-12.8v3.87h11.11v5.74h-11.13v4.06h12.8v5.73h-18.54v-25.13h18.56zm20.49-.11h7v.11l-9 12.63 9 12.58h-7l-5.44-7.63-5.47 7.63h-7l9-12.58-9-12.63v-.07h7l5.51 7.74 5.4-7.78zm23.56 0h5.74v15.11a10.01 10.01 0 0 1-.8 4 10.28 10.28 0 0 1-2.2 3.24c-.934.924-2.033 1.664-3.24 2.18-1.264.541-2.626.813-4 .8a10 10 0 0 1-4-.8 10.22 10.22 0 0 1-3.24-2.18 10.38 10.38 0 0 1-2.18-3.24c-.539-1.264-.811-2.626-.8-4v-15.11h5.74v15.11a4.3 4.3 0 0 0 .35 1.75c.224.526.546 1.005.95 1.41a4.44 4.44 0 0 0 1.41 1 4.32 4.32 0 0 0 1.75.36 4.24 4.24 0 0 0 1.74-.36c.528-.243 1.006-.582 1.41-1a4.4 4.4 0 0 0 1-1.41 4.33 4.33 0 0 0 .35-1.75l.02-15.11zm25.58 10.54l13.37-11.66v26.4h-5.69v-13.78l-7.63 6.63-7.59-6.63v13.78h-5.78v-26.4l13.32 11.66zm20.03-10.43h5.74v25.13h-5.74v-25.13zm30.87 0h5.36v26.29l-17-14.9v13.78h-5.74v-26.43l17.06 14.89v-13.63h.32zm21.85 0a12.23 12.23 0 0 1 4.9 1 12.67 12.67 0 0 1 6.7 6.7c.653 1.549.989 3.214.989 4.895s-.336 3.346-.989 4.895a12.73 12.73 0 0 1-2.7 4c-1.144 1.153-2.503 2.071-4 2.7a12.23 12.23 0 0 1-4.9 1h-9.64v-25.19h9.64zm0 19.47a6.95 6.95 0 0 0 4.8-2c.624-.617 1.12-1.351 1.46-2.16.347-.84.524-1.741.52-2.65a7.01 7.01 0 0 0-.52-2.66 6.63 6.63 0 0 0-1.46-2.18 6.95 6.95 0 0 0-4.8-2h-3.91v13.73l3.91-.08z"/></svg>